<svg width="222" height="107" viewBox="0 0 222 107" fill="none" xmlns="http://www.w3.org/2000/svg">
<path d="M58.5488 92.8867L51.1816 85.9199C50.8613 85.9733 50.5143 86 50.1406 86C49.7936 86 49.46 86 49.1396 86H30.041C26.0638 86 22.4469 85.2526 19.1904 83.7578C15.9339 82.263 13.1445 80.221 10.8223 77.6318C8.52669 75.0426 6.75163 71.9997 5.49707 68.5029C4.24251 65.0062 3.61523 61.2692 3.61523 57.292C3.61523 53.3415 4.24251 49.6312 5.49707 46.1611C6.75163 42.6644 8.52669 39.6214 10.8223 37.0322C13.1445 34.4163 15.9339 32.361 19.1904 30.8662C22.4469 29.3447 26.0638 28.584 30.041 28.584H49.1396C53.0902 28.584 56.6803 29.3447 59.9102 30.8662C63.14 32.361 65.9027 34.4163 68.1982 37.0322C70.5205 39.6214 72.3089 42.6644 73.5635 46.1611C74.818 49.6312 75.4453 53.3415 75.4453 57.292C75.4453 60.2549 75.085 63.0977 74.3643 65.8203C73.6702 68.5163 72.6559 71.012 71.3213 73.3076C69.9867 75.5765 68.3584 77.6051 66.4365 79.3936C64.5413 81.1553 62.4059 82.5967 60.0303 83.7178L69.6396 92.8867H58.5488ZM67.2373 57.292C67.2373 54.4626 66.8236 51.8066 65.9961 49.3242C65.1686 46.8418 63.9674 44.6797 62.3926 42.8379C60.8444 40.9694 58.9492 39.5013 56.707 38.4336C54.4915 37.3392 51.9691 36.792 49.1396 36.792H30.041C27.2116 36.792 24.6624 37.3392 22.3936 38.4336C20.1514 39.5013 18.2428 40.9694 16.668 42.8379C15.1198 44.6797 13.9186 46.8418 13.0645 49.3242C12.237 51.8066 11.8232 54.4626 11.8232 57.292C11.8232 60.1214 12.237 62.7907 13.0645 65.2998C13.9186 67.7822 15.1198 69.9577 16.668 71.8262C18.2428 73.668 20.1514 75.1227 22.3936 76.1904C24.6624 77.2581 27.2116 77.792 30.041 77.792H42.6533L34.8457 70.3447H46.3369L53.4639 77.3115C55.626 76.8044 57.5612 75.9368 59.2695 74.709C60.9779 73.4544 62.4193 71.9463 63.5938 70.1846C64.7949 68.4229 65.7025 66.4476 66.3164 64.2588C66.9303 62.07 67.2373 59.7477 67.2373 57.292ZM133.662 40.916V63.458C133.662 66.5811 133.075 69.5173 131.9 72.2666C130.726 74.9893 129.111 77.3783 127.056 79.4336C125.027 81.4622 122.651 83.0638 119.929 84.2383C117.206 85.4128 114.297 86 111.2 86H106.676C103.579 86 100.67 85.4128 97.9473 84.2383C95.2246 83.0371 92.8356 81.4222 90.7803 79.3936C88.7516 77.3382 87.1501 74.9492 85.9756 72.2266C84.8011 69.4772 84.2139 66.5544 84.2139 63.458V40.916H92.4219V63.458C92.4219 65.4333 92.7956 67.3018 93.543 69.0635C94.2904 70.7985 95.3047 72.32 96.5859 73.6279C97.8939 74.9092 99.402 75.9235 101.11 76.6709C102.845 77.4183 104.701 77.792 106.676 77.792H111.2C113.175 77.792 115.031 77.4183 116.766 76.6709C118.501 75.9235 120.009 74.9092 121.29 73.6279C122.571 72.32 123.586 70.7985 124.333 69.0635C125.08 67.3018 125.454 65.4333 125.454 63.458V40.916H133.662ZM199.406 86H191.198V49.0039H169.497V40.916H221.067V49.0039H199.406V86Z" fill="#FAFAFA"/>
<rect x="144.228" y="23.6636" width="6.61528" height="63.5067" fill="#EEEEEE"/>
<rect x="163.961" y="9.01788" width="3.63841" height="13.2031" transform="rotate(120 163.961 9.01788)" fill="#E94D17"/>
<rect x="144.228" y="58.063" width="6.61528" height="29.1072" fill="#F9B533"/>
<rect x="150.843" y="23.6636" width="6.61528" height="63.5067" fill="#DADADA"/>
<rect x="150.688" y="5.54523" width="6.61528" height="10.2747" transform="rotate(30 150.688 5.54523)" fill="#EEEEEE"/>
<rect x="156.405" y="8.87402" width="6.61528" height="10.2503" transform="rotate(30 156.405 8.87402)" fill="#DADADA"/>
<rect x="150.843" y="58.063" width="6.61528" height="29.1072" fill="#F09301"/>
</svg>
